<svg width="18" height="17" viewBox="0 0 18 17" fill="none" xmlns="http://www.w3.org/2000/svg">
<path fill-rule="evenodd" clip-rule="evenodd" d="M0.850037 8.7147C0.850037 8.07957 1.36491 7.5647 2.00004 7.5647H16.0117C16.6468 7.5647 17.1617 8.07957 17.1617 8.7147C17.1617 9.34982 16.6468 9.8647 16.0117 9.8647H2.00004C1.36491 9.8647 0.850037 9.34982 0.850037 8.7147Z" fill="#5A88FF"/>
<path fill-rule="evenodd" clip-rule="evenodd" d="M9.00571 16.5795C8.37059 16.5795 7.85571 16.0646 7.85571 15.4295L7.85571 2.00002C7.85571 1.36489 8.37058 0.85002 9.00571 0.85002C9.64084 0.85002 10.1557 1.36489 10.1557 2.00002L10.1557 15.4295C10.1557 16.0646 9.64084 16.5795 9.00571 16.5795Z" fill="#5A88FF"/>
</svg>
