<svg width="17" height="21" viewBox="0 0 17 21" fill="none" xmlns="http://www.w3.org/2000/svg">
<path fill-rule="evenodd" clip-rule="evenodd" d="M3.93606 1C3.93606 0.447715 4.38378 0 4.93607 0H11.2641C11.8164 0 12.2641 0.447715 12.2641 1V3.42655H15.2012C15.7535 3.42655 16.2012 3.87422 16.2012 4.42647L16.2015 7.99927C16.2016 8.2645 16.0962 8.51888 15.9087 8.70643C15.7211 8.89398 15.4668 8.99935 15.2015 8.99935H14.5233L13.7461 19.1865C13.7063 19.7077 13.2718 20.1104 12.749 20.1104H3.43434C2.9109 20.1104 2.47603 19.7067 2.43711 19.1847L1.67771 8.99935H1.0003C0.448047 8.99935 0.000345055 8.55169 0.000298861 7.99944L3.49943e-09 4.42663C-2.21694e-05 4.1614 0.105325 3.90703 0.292864 3.71947C0.480402 3.53192 0.734769 3.42655 1 3.42655H3.93606V1ZM5.93606 3.42655H10.2641V2H5.93606V3.42655ZM3.68326 8.99935L4.36256 18.1104H11.8224L12.5175 8.99935H3.68326ZM2.00008 5.42655L2.00022 6.99935H14.2015L14.2013 5.42655H2.00008Z" fill="#FF607C"/>
</svg>
