<svg width="21" height="21" viewBox="0 0 21 21" fill="none" xmlns="http://www.w3.org/2000/svg">
<path fill-rule="evenodd" clip-rule="evenodd" d="M14.4034 0.95003C14.684 0.951671 14.9523 1.06556 15.1483 1.26628L19.8545 6.08381C20.2564 6.4952 20.2525 7.15334 19.8458 7.56L8.37592 19.0299C7.61639 19.7895 6.58626 20.2162 5.51213 20.2162H2.00014C1.42024 20.2162 0.950146 19.7461 0.950135 19.1662L0.950073 15.6399C0.950054 14.5657 1.37675 13.5356 2.13629 12.776L13.6548 1.25755C13.8532 1.05913 14.1228 0.948389 14.4034 0.95003ZM12.0801 5.80205L15.357 9.07896L17.6271 6.80891L14.3885 3.49367L12.0801 5.80205ZM13.8721 10.5639L10.5952 7.28697L3.62121 14.261C3.25551 14.6267 3.05006 15.1227 3.05007 15.6399L3.05012 18.1162H5.51213C6.02931 18.1162 6.5253 17.9107 6.89099 17.545L13.8721 10.5639Z" fill="#5A88FF"/>
</svg>
