<svg width="24" height="24" viewBox="0 0 24 24" fill="none" xmlns="http://www.w3.org/2000/svg">
<path fill-rule="evenodd" clip-rule="evenodd" d="M5.82881 5.82878C6.33649 5.3211 7.1596 5.3211 7.66729 5.82878L17.575 15.7365C18.0827 16.2442 18.0827 17.0673 17.575 17.575C17.0673 18.0827 16.2442 18.0827 15.7365 17.575L5.82881 7.66726C5.32113 7.15958 5.32113 6.33647 5.82881 5.82878Z" fill="#686868"/>
<path fill-rule="evenodd" clip-rule="evenodd" d="M6.0346 17.3691C5.52691 16.8614 5.52691 16.0383 6.0346 15.5306L15.5306 6.03457C16.0383 5.52688 16.8614 5.52689 17.3691 6.03457C17.8768 6.54225 17.8768 7.36536 17.3691 7.87304L7.87307 17.3691C7.36539 17.8768 6.54228 17.8768 6.0346 17.3691Z" fill="#686868"/>
</svg>
