<svg width="20" height="20" viewBox="0 0 20 20" fill="none" xmlns="http://www.w3.org/2000/svg">
<path fill-rule="evenodd" clip-rule="evenodd" d="M8.60277 1.80001C4.86528 1.80001 1.80001 4.91595 1.80001 8.80394C1.80001 12.6919 4.86528 15.8079 8.60277 15.8079C12.3403 15.8079 15.4055 12.6919 15.4055 8.80394C15.4055 4.91595 12.3403 1.80001 8.60277 1.80001ZM0.200012 8.80394C0.200012 4.07195 3.94249 0.200012 8.60277 0.200012C13.2631 0.200012 17.0055 4.07195 17.0055 8.80394C17.0055 13.5359 13.2631 17.4079 8.60277 17.4079C3.94249 17.4079 0.200012 13.5359 0.200012 8.80394Z" fill="#686868"/>
<path fill-rule="evenodd" clip-rule="evenodd" d="M13.4751 13.8051C13.7916 13.4968 14.298 13.5034 14.6064 13.8199L18.9508 18.2793C19.2591 18.5957 19.2525 19.1022 18.936 19.4105C18.6196 19.7188 18.1131 19.7122 17.8048 19.3958L13.4603 14.9364C13.152 14.6199 13.1586 14.1134 13.4751 13.8051Z" fill="#686868"/>
</svg>
