<svg width="16" height="15" viewBox="0 0 16 15" fill="none" xmlns="http://www.w3.org/2000/svg">
<path fill-rule="evenodd" clip-rule="evenodd" d="M0.700012 1.55174C0.700012 0.833769 1.28204 0.25174 2.00001 0.25174H8.00089C8.71886 0.25174 9.30089 0.833769 9.30089 1.55174C9.30089 2.26971 8.71886 2.85174 8.00089 2.85174H2.00001C1.28204 2.85174 0.700012 2.26971 0.700012 1.55174Z" fill="#5A88FF"/>
<path fill-rule="evenodd" clip-rule="evenodd" d="M0.700012 6.99949C0.700013 6.28152 1.28204 5.69949 2.00001 5.69949L6.24098 5.69949C6.95895 5.69949 7.54098 6.28152 7.54098 6.99949C7.54098 7.71746 6.95895 8.29949 6.24098 8.29949L2.00001 8.29949C1.28204 8.29949 0.700011 7.71746 0.700012 6.99949Z" fill="#5A88FF"/>
<path fill-rule="evenodd" clip-rule="evenodd" d="M0.700134 12.8427C0.700135 12.1248 1.28217 11.5427 2.00013 11.5427L9.82708 11.5427C10.545 11.5427 11.1271 12.1248 11.1271 12.8427C11.1271 13.5607 10.545 14.1427 9.82707 14.1427L2.00013 14.1427C1.28216 14.1427 0.700134 13.5607 0.700134 12.8427Z" fill="#5A88FF"/>
<path d="M15.0576 12.8489C15.0576 13.6774 14.386 14.3489 13.5576 14.3489C12.7292 14.3489 12.0576 13.6774 12.0576 12.8489C12.0576 12.0205 12.7292 11.3489 13.5576 11.3489C14.386 11.3489 15.0576 12.0205 15.0576 12.8489Z" fill="#5A88FF"/>
<path d="M15.0576 7.17447C15.0576 8.0029 14.386 8.67447 13.5576 8.67447C12.7292 8.67447 12.0576 8.0029 12.0576 7.17447C12.0576 6.34604 12.7292 5.67447 13.5576 5.67447C14.386 5.67447 15.0576 6.34604 15.0576 7.17447Z" fill="#5A88FF"/>
<path d="M15.0576 1.5C15.0576 2.32843 14.386 3 13.5576 3C12.7292 3 12.0576 2.32843 12.0576 1.5C12.0576 0.671573 12.7292 0 13.5576 0C14.386 0 15.0576 0.671573 15.0576 1.5Z" fill="#5A88FF"/>
</svg>
